<?xml version="1.0" encoding="utf-8"?>
<!-- Generator: Adobe Illustrator 16.0.0, SVG Export Plug-In . SVG Version: 6.00 Build 0)  -->
<!DOCTYPE svg PUBLIC "-//W3C//DTD SVG 1.1//EN" "http://www.w3.org/Graphics/SVG/1.1/DTD/svg11.dtd">
<svg version="1.1" id="Yellow" xmlns="http://www.w3.org/2000/svg" xmlns:xlink="http://www.w3.org/1999/xlink" x="0px" y="0px"
	 width="1280px" height="713.964px" viewBox="0 0 1280 713.964" enable-background="new 0 0 1280 713.964" xml:space="preserve">
<path id="yellowBG" fill="#FCB216" d="M1209.589,317.648H757.522C761.077,180.217,648.655,69.029,481.944,53.97
	C290.238,36.653,89.597,151.949,33.384,316.909C-24.924,488.021,94.135,644.497,299.72,660.411
	c92.79,7.185,185.005-15.738,262.126-58.839h647.742c28.626,0,51.835-23.207,51.835-51.835V369.483
	C1261.424,340.855,1238.215,317.648,1209.589,317.648z"/>
<path id="redBG" fill="#E32028" d="M1213.572,338.142H742.269c14.05-136.46-94.805-249.354-259.86-264.067
	c-181.575-16.186-371.612,91.58-424.855,245.768C2.327,479.778,115.094,626.036,309.814,640.909
	C436.124,650.56,566.998,600,650.37,517.375c3.151,1,6.506,1.542,9.987,1.542h553.215c18.227,0,33.004-14.776,33.004-33.003v-114.77
	C1246.576,352.917,1231.799,338.142,1213.572,338.142z"/>
<path id="w" fill="#FCB216" d="M1031.614,400.757c0,0-8.626,68.843-16.277,81.212c3.254,0,27.994,0,27.994,0l50.126-52.242
	l-7.976,52.242h27.666l75.353-80.235h-23.759l-50.127,56.473l10.903-56.635h-23.597l-50.778,54.356c0,0,13.689-48.491,15.969-54.512
	C1063.043,401.417,1031.614,400.757,1031.614,400.757z"/>
<path id="o" fill="#FCB216" d="M949.807,399.074c-28.157,0.1-56.872,11.023-74.753,33.856
	c-18.396,23.488-12.807,53.354,19.854,52.457c28.475-0.782,58.278-8.699,76.845-33.824
	C1000.501,412.664,972.992,398.993,949.807,399.074z M945.158,439.627c-6.957,12.245-26.509,32.625-42.009,33.248
	c-11.528,0.464-5.427-20.027-2.627-25.79c7.394-15.216,22.531-31.751,39.479-36.452
	C958.075,405.617,949.131,432.635,945.158,439.627z"/>
<polygon id="l_1_" fill="#FCB216" points="760.898,483.057 828.387,370.217 860.294,370.217 792.807,483.057 "/>
<polygon id="l" fill="#FCB216" points="670.41,483.057 737.898,370.217 769.811,370.217 702.32,483.057 "/>
<path id="e" fill="#FCB216" d="M639.391,400.508c-27.125-4.902-52.693,2.061-66.564,12.129
	c-47.523,34.504-35.154,61.356-22.623,66.892c37.212,16.429,69.872-7.325,69.872-7.325l-5.641-9.113
	c-51.972,20.832-40.47-12.043-38.842-16.274C656.093,449.093,672.625,406.514,639.391,400.508z M622.671,409.469
	c5.169,1.711-0.866,10.021-3.196,12.323c-4.672,4.623-10.086,8.474-16.333,10.634c-7.641,2.646-15.256,3.272-22.179,4.461
	C588.383,426.849,608.707,404.844,622.671,409.469z"/>
<path id="y" fill="#FCB216" d="M505.612,130.108H422.61c0,0-99.603,142.893-110.019,179.999
	c-19.854,70.631,47.85,116.526,161.772,10.416c0.326-0.325-84.479,150.761-169.583,207.015
	c-38.409,25.389-167.305,76.166-169.259-46.222c0-48.173,44.267-69.655,74.213-57.937c0-11.068,0-17.577,0-17.577
	S67.168,377.159,67.168,485.223c0,64.448,76.167,84.628,83.326,86.582c12.369,2.604,166.655,37.758,295.551-104.158
	c42.314-38.407,84.629-112.621,107.413-148.425l115.226-184.231l-81.374,0c0,0-47.522,102.856-135.406,181.626
	c-36.457,37.196-113,68.792-63.147-13.021C434.738,228.142,505.612,130.108,505.612,130.108z"/>
<g id="חנויות_נוחות">
	<path id="ת_1_" fill="#E32028" d="M654.936,572.876c1.311,0.517,2.587,0.774,3.825,0.774c1.547,0,2.76-0.382,3.636-1.143
		c0.876-0.76,1.854-2.199,2.93-4.313l9.989-19.657c-1.805,0-4.663,0.22-8.575,0.658l3.416-8.397
		c7.089-0.852,15.424-1.277,22.596-1.277c6.062,0,10.592,0.529,13.589,1.586c2.997,1.06,4.675,2.993,5.04,5.805
		c0.364,2.812-0.765,6.797-3.389,11.957l-11.269,22.173h-12.077l11.471-20.198c2.648-5.212,3.521-8.631,2.618-10.257
		c-0.901-1.622-4.616-2.437-11.142-2.437l-11.65,20.547c-1.771,3.483-3.305,5.979-4.599,7.487c-1.296,1.511-3.017,2.747-5.158,3.715
		c-2.145,0.968-4.736,1.452-7.779,1.452c-3.304,0-6.207-0.478-8.715-1.432L654.936,572.876z"/>
	<path id="ו_3_" fill="#E32028" d="M752.759,539.985l-20.869,41.057h-11.182l20.866-41.057H752.759z"/>
	<path id="ח_1_" fill="#E32028" d="M795.425,581.042h-10.833l10.954-21.554c1.823-3.585,2.417-6.308,1.789-8.164
		c-0.63-1.858-3.048-2.786-7.253-2.786c-2.244,0-4.186,0.142-5.826,0.427l-16.304,32.077h-10.873l20.453-40.243
		c5.412-0.852,10.67-1.277,15.778-1.277c6.526,0,10.965,0.8,13.313,2.399c2.346,1.6,3.505,3.721,3.478,6.365
		c-0.028,2.644-1.165,6.172-3.406,10.583L795.425,581.042z"/>
	<path id="ו_2_" fill="#E32028" d="M853.869,539.985l-20.868,41.057h-11.182l20.868-41.057H853.869z"/>
	<path id="נ_1_" fill="#E32028" d="M877.492,581.042h-22.25l4.758-9.364h11.416l7.809-15.361c1.574-3.097,1.929-5.192,1.068-6.289
		c-0.863-1.096-2.543-1.646-5.046-1.646c-1.496,0-2.593,0.078-3.29,0.234l3.454-8.397c2.248-0.465,4.933-0.697,8.055-0.697
		c5.21,0,8.394,1.265,9.546,3.792c1.153,2.528,0.319,6.565-2.5,12.112L877.492,581.042z"/>
	<path id="ת" fill="#E32028" d="M941.383,572.876c1.311,0.517,2.587,0.774,3.825,0.774c1.546,0,2.759-0.382,3.635-1.143
		c0.877-0.76,1.854-2.199,2.93-4.313l9.99-19.657c-1.807,0-4.665,0.219-8.577,0.658l3.418-8.397
		c7.089-0.852,15.424-1.277,22.595-1.277c6.061,0,10.591,0.529,13.59,1.586c2.995,1.06,4.674,2.993,5.039,5.805
		c0.363,2.812-0.765,6.797-3.388,11.957l-11.27,22.173h-10.872l10.265-20.198c2.649-5.212,3.521-8.631,2.62-10.257
		c-0.902-1.622-5.823-2.437-12.349-2.437l-10.443,20.547c-1.771,3.483-3.305,5.979-4.599,7.487
		c-1.298,1.511-3.017,2.747-5.158,3.715c-2.146,0.968-4.737,1.452-7.78,1.452c-3.304,0-6.208-0.478-8.715-1.432L941.383,572.876z"/>
	<path id="ו_1_" fill="#E32028" d="M1039.202,539.985l-20.866,41.057h-11.183l20.868-41.057H1039.202z"/>
	<path id="י" fill="#E32028" d="M1075.573,539.985l-11.642,22.907h-11.185l11.646-22.907H1075.573z"/>
	<path id="ו" fill="#E32028" d="M1110.741,539.985l-20.869,41.057h-11.182l20.867-41.057H1110.741z"/>
	<path id="נ" fill="#E32028" d="M1132.858,581.042h-22.251l4.759-9.364h11.415l7.809-15.361c1.575-3.097,1.93-5.192,1.069-6.289
		c-0.863-1.096-2.544-1.646-5.046-1.646c-1.496,0-2.594,0.078-3.292,0.234l3.456-8.397c2.248-0.465,4.933-0.697,8.054-0.697
		c5.21,0,8.393,1.265,9.547,3.792c1.153,2.528,0.32,6.565-2.499,12.112L1132.858,581.042z"/>
	<path id="ח" fill="#E32028" d="M1196.306,581.042h-10.833l10.955-21.554c1.821-3.585,2.417-6.308,1.789-8.164
		c-0.63-1.858-3.049-2.786-7.255-2.786c-2.243,0-4.186,0.142-5.825,0.427l-16.305,32.077h-10.873l20.455-40.243
		c5.411-0.852,10.67-1.277,15.777-1.277c6.526,0,10.964,0.8,13.313,2.399c2.346,1.6,3.504,3.721,3.478,6.365
		c-0.029,2.644-1.164,6.172-3.406,10.583L1196.306,581.042z"/>
</g>
</svg>
